<svg width="119" height="28" viewBox="0 0 119 28" fill="none" xmlns="http://www.w3.org/2000/svg">
<path fill-rule="evenodd" clip-rule="evenodd" d="M70.879 6.95314C70.3125 7.20419 69.9533 7.77218 69.9694 8.39163V8.41163C69.9656 8.81855 70.1319 9.20856 70.4281 9.48764C70.7242 9.76671 71.1234 9.90952 71.5294 9.88163C72.1489 9.86927 72.6998 9.48444 72.9246 8.90699C73.1494 8.32955 73.0037 7.67352 72.5556 7.24552C72.1075 6.81753 71.4455 6.70208 70.879 6.95314ZM37.3994 7.64163H34.3994V19.7716H37.3994V7.64163ZM43.2694 10.4016C40.4294 10.4016 38.5894 12.1916 38.5894 15.1916C38.5894 18.2416 40.3894 19.9916 43.2694 19.9916C46.1494 19.9916 47.9494 18.1916 47.9494 15.1916C47.9494 12.1916 46.1094 10.4016 43.2694 10.4016ZM44.9394 15.1916C44.9394 13.5416 44.2894 12.5716 43.2694 12.5716C42.2494 12.5716 41.6094 13.5716 41.6094 15.1916C41.6094 16.8116 42.2394 17.7916 43.2694 17.7916C44.2994 17.7916 44.9394 16.8716 44.9394 15.2016V15.1916ZM51.9594 20.3616H49.0794V20.3716C49.2494 22.0316 50.8994 23.2216 53.5494 23.2216C56.3994 23.2216 58.3294 21.8616 58.3294 19.6716V10.5716H55.3294V12.2416C54.8669 11.1364 53.7666 10.4347 52.5694 10.4816C50.2694 10.4816 48.8894 12.2916 48.8894 15.1616C48.8894 18.0316 50.3394 19.7016 52.5294 19.7016C53.6891 19.7646 54.7703 19.1151 55.2594 18.0616H55.3194V19.7416C55.3194 20.6416 54.7194 21.2616 53.5794 21.2616C52.8997 21.353 52.2408 20.987 51.9594 20.3616ZM55.3294 15.1816C55.3294 13.7216 54.6594 12.8016 53.5994 12.8016C52.5394 12.8016 51.8894 13.7116 51.8894 15.1816C51.8894 16.6516 52.5294 17.4816 53.5994 17.4816C54.6694 17.4816 55.3294 16.6716 55.3294 15.1916V15.1816ZM64.1394 10.3916C61.2994 10.3916 59.4594 12.1816 59.4594 15.1816V15.1916C59.4594 18.2416 61.2494 19.9816 64.1394 19.9816C67.0294 19.9816 68.8294 18.1816 68.8294 15.1816C68.8294 12.1816 66.9794 10.3916 64.1394 10.3916ZM65.8094 15.1816C65.8094 13.5316 65.1594 12.5616 64.1394 12.5616C63.1194 12.5616 62.5294 13.5716 62.5294 15.2016C62.5294 16.8316 63.1594 17.8016 64.1794 17.8016C65.1994 17.8016 65.8094 16.8716 65.8094 15.2016V15.1816ZM69.9694 10.5916H72.9694V19.7716H69.9694V10.5916ZM80.2494 19.8916C82.5294 19.8916 83.8594 18.1816 83.8594 15.1816L83.8994 15.2016C83.8994 12.2016 82.5294 10.4816 80.2294 10.4416C79.0226 10.3878 77.9112 11.0954 77.4494 12.2116H77.3894V10.5716H74.3894V22.7116H77.3894V18.1916H77.4494C77.9336 19.2896 79.0518 19.9685 80.2494 19.8916ZM80.8594 15.1816C80.8594 13.7216 80.1894 12.7916 79.1394 12.7916C78.0894 12.7916 77.4194 13.7316 77.4094 15.1816C77.3994 16.6316 78.0894 17.5616 79.1394 17.5616C80.1894 17.5616 80.8594 16.6516 80.8594 15.2016V15.1816ZM93.0794 13.4516C93.0094 11.5616 91.4994 10.3816 89.0094 10.3816V10.4016C86.5294 10.4016 84.9194 11.5716 84.8994 13.3716C84.8994 14.7716 85.8394 15.7216 87.6294 16.0916L89.3594 16.4616C90.0794 16.6116 90.3594 16.7116 90.3594 17.1916C90.3594 17.6716 89.9594 17.9616 89.0794 17.9616C88.1994 17.9616 87.6594 17.5616 87.5694 16.8816H84.6794C84.8094 18.7516 86.4794 19.9716 89.0294 19.9716C91.5794 19.9716 93.3094 18.7516 93.3094 16.8516C93.3094 15.4616 92.5294 14.7216 90.6994 14.3316L88.7794 13.9416C88.1094 13.8016 87.7794 13.6516 87.7794 13.1816C87.7794 12.7116 88.1494 12.3916 88.9794 12.3916C89.8094 12.3916 90.3494 12.8016 90.3494 13.4516H93.0794ZM103.319 19.7516H100.429V18.0416H100.369C100.042 19.2245 98.9348 20.0196 97.7094 19.9516C96.7872 20.0041 95.8875 19.6542 95.2431 18.9924C94.5986 18.3307 94.2726 17.4221 94.3494 16.5016V10.5716H97.3494V15.8116C97.3494 16.9016 97.9094 17.4816 98.8394 17.4816C99.2806 17.4825 99.7007 17.2929 99.9919 16.9615C100.283 16.6301 100.417 16.189 100.359 15.7516V10.5716H103.359L103.319 19.7516ZM107.669 10.5716H104.769L104.719 19.7716H107.719V14.3616C107.674 13.9812 107.793 13.5993 108.047 13.3126C108.301 13.0259 108.666 12.8618 109.049 12.8616C109.869 12.8616 110.319 13.3616 110.319 14.2816V19.7716H113.169V14.3416C113.12 13.9658 113.236 13.5871 113.487 13.3033C113.739 13.0195 114.1 12.8584 114.479 12.8616C115.319 12.8616 115.769 13.3216 115.769 14.3216V19.7716H118.769V13.5216C118.829 12.6983 118.537 11.8881 117.965 11.293C117.393 10.698 116.594 10.3739 115.769 10.4016C114.483 10.3464 113.323 11.1694 112.949 12.4016H112.889C112.69 11.1725 111.581 10.3022 110.339 10.4016C109.129 10.3793 108.057 11.1765 107.729 12.3416H107.669V10.5716Z" fill="#696871"/>
<path fill-rule="evenodd" clip-rule="evenodd" d="M24.0094 4.97168C24.8269 5.94361 25.5005 7.02804 26.0094 8.19168C26.7507 9.88829 27.132 11.7202 27.1294 13.5717C27.1239 21.0451 21.0727 27.1051 13.5994 27.1217C11.8605 27.1207 10.1384 26.7811 8.52939 26.1217C7.38174 25.6657 6.30439 25.0496 5.32939 24.2917C1.18237 21.1312 -0.77959 15.8691 0.286103 10.7651C1.35179 5.66115 5.25548 1.62372 10.3207 0.386755C15.3858 -0.850207 20.7111 0.933438 24.0094 4.97168ZM18.1094 3.76168C16.6936 3.10281 15.1509 2.76151 13.5894 2.76168L13.5994 2.74168C9.89642 2.73891 6.45021 4.63345 4.46836 7.76142C2.4865 10.8894 2.24534 14.8146 3.82939 18.1617C4.28108 17.6871 4.55943 17.0741 4.61939 16.4217C4.9831 13.9091 6.9568 11.9354 9.46939 11.5717C10.887 11.4431 12.0191 10.3361 12.1794 8.92168C12.5431 6.40909 14.5168 4.43539 17.0294 4.07168C17.4012 4.01503 17.7642 3.91084 18.1094 3.76168ZM5.31939 20.5717C5.35939 20.535 5.39939 20.4994 5.4394 20.4639L5.43946 20.4638C5.51943 20.3927 5.59941 20.3217 5.67939 20.2417C6.56904 19.3791 7.1401 18.2405 7.29939 17.0117C7.36397 16.3209 7.67239 15.6757 8.16939 15.1917C8.64763 14.6938 9.29136 14.388 9.97939 14.3317C12.492 13.968 14.4657 11.9943 14.8294 9.48168C14.8726 8.75919 15.1827 8.07852 15.6994 7.57168C16.1894 7.08353 16.8393 6.78878 17.5294 6.74168C18.6533 6.58704 19.7015 6.08739 20.5294 5.31168C21.472 6.09375 22.2707 7.03457 22.8894 8.09168C22.8514 8.14303 22.8078 8.18998 22.7594 8.23168C22.2821 8.73387 21.6392 9.04644 20.9494 9.11168C18.4337 9.46912 16.4568 11.446 16.0994 13.9617C15.9541 15.381 14.8293 16.5017 13.4094 16.6417C10.8898 17.0026 8.90579 18.9744 8.52939 21.4917C8.47557 21.9804 8.30773 22.4497 8.03939 22.8617C7.01338 22.2525 6.09447 21.4789 5.31939 20.5717ZM10.5894 24.0117C11.5648 24.2914 12.5747 24.4328 13.5894 24.4317V24.3817C16.9385 24.3687 20.0927 22.8055 22.1315 20.1484C24.1703 17.4914 24.8637 14.04 24.0094 10.8017C23.2502 11.3385 22.3714 11.6817 21.4494 11.8017C20.0334 11.9461 18.9139 13.0657 18.7694 14.4817C18.4046 16.9974 16.4259 18.972 13.9094 19.3317C12.4934 19.4761 11.3739 20.5957 11.2294 22.0117C11.14 22.7118 10.923 23.3897 10.5894 24.0117Z" fill="#696871"/>
</svg>
