<svg width="24" height="24" viewBox="0 0 24 24" fill="none" xmlns="http://www.w3.org/2000/svg">
<path d="M9.22099 22.0016C10.3495 20.8665 10.9129 19.2873 10.7578 17.6942L10.7857 17.7207C10.6273 15.8453 11.304 13.9955 12.6351 12.665C13.9662 11.3344 15.8163 10.6586 17.6916 10.8178L17.6636 10.7913C19.933 11.0039 22.0921 9.7706 23.0617 7.7078C24.0313 5.64499 23.6033 3.19566 21.9916 1.58393C20.3798 -0.0277992 17.9305 -0.455804 15.8677 0.513824C13.8049 1.48345 12.5716 3.64248 12.7842 5.91187L12.7578 5.8854C12.916 7.76024 12.2397 9.60949 10.9093 10.9399C9.5789 12.2703 7.72964 12.9466 5.85481 12.7883L5.88128 12.8148C3.38658 12.5911 1.06564 14.1127 0.275915 16.4896C-0.513813 18.8666 0.435108 21.4746 2.56768 22.7882C4.70026 24.1019 7.45632 23.7762 9.22393 22.0016H9.22099Z" fill="#5454D4"/>
</svg>
