<svg width="24" height="24" viewBox="0 0 24 24" fill="none" xmlns="http://www.w3.org/2000/svg">
<path d="M14.3514 1.58871C13.2231 2.72395 12.6592 4.30289 12.8132 5.89606L12.7867 5.86959C12.945 7.74442 12.2687 9.59368 10.9383 10.9241C9.60786 12.2545 7.75861 12.9308 5.88378 12.7725L5.91025 12.799C3.64025 12.5877 1.4815 13.8225 0.512754 15.8862C-0.455989 17.95 -0.0267011 20.3996 1.58609 22.0109C3.19888 23.6222 5.64887 24.0493 7.71174 23.0787C9.77461 22.1081 11.0074 19.9482 10.7941 17.6784L10.822 17.7049C10.6637 15.8301 11.34 13.9808 12.6704 12.6504C14.0009 11.32 15.8501 10.6437 17.725 10.8019L17.697 10.7755C20.1918 10.9998 22.5132 9.47865 23.3034 7.10169C24.0936 4.72474 23.145 2.11646 21.0124 0.802496C18.8799 -0.511467 16.1236 -0.185923 14.3558 1.58871H14.3514Z" fill="#5454D4"/>
</svg>
